<svg xmlns="http://www.w3.org/2000/svg" width="43.694" height="63.078" viewBox="0 0 43.694 63.078">
  <path id="musical-note_1_" data-name="musical-note (1)" d="M104.067,40.115a26.2,26.2,0,0,0,3.513-11.535,16.1,16.1,0,0,0-1.7-8c-1.994-4.086-5.42-6.381-8.73-8.6-2.47-1.655-4.8-3.217-6.454-5.449l-.3-.4c-.975-1.31-2.077-2.8-2.252-4.042A2.453,2.453,0,0,0,85.579,0a2.42,2.42,0,0,0-2.256,2.417V45.657a14.037,14.037,0,0,0-7.279-1.99c-6.687,0-12.131,4.353-12.131,9.705s5.445,9.705,12.131,9.705,12.131-4.353,12.131-9.705V25.092A17.466,17.466,0,0,1,99.423,38.315a13.684,13.684,0,0,1-.937,1.325,2.424,2.424,0,1,0,3.639,3.2,18.036,18.036,0,0,0,1.781-2.5A1.53,1.53,0,0,0,104.067,40.115Z" transform="translate(-63.912 0)" fill="#fff"/>
</svg>
